<svg xmlns="http://www.w3.org/2000/svg" width="52" height="52" viewBox="0 0 52 52"><defs><clipPath id="8hoea"><path d="M13.292 35.846V16.152h30.28v19.694z"/></clipPath></defs><g><g><path fill="#9086d0" d="M0 26C0 11.64 11.64 0 26 0s26 11.64 26 26-11.64 26-26 26S0 40.36 0 26z"/></g><g transform="rotate(-12 248.43 658)"><g><path fill="#fff" d="M13.292 35.846V16.152h30.28v19.694z"/></g><g clip-path="url(#8hoea)"><path fill="#fff" d="M21.17 35.846c-1.767-2.359-3.533-4.718-5.304-7.074-.76-1.011-1.513-2.029-2.3-3.018-.4-.502-.371-.858.152-1.245a78.604 78.604 0 0 0 3.119-2.419c.53-.435.866-.297 1.232.19 1.391 1.855 2.798 3.698 4.2 5.544.126.167.259.33.412.523 3.32-2.3 6.626-4.593 9.933-6.883 2.358-1.633 4.715-3.265 7.074-4.896.87-.602.919-.592 1.534.306.641.935 1.28 1.871 1.918 2.808.623.912.607 1.013-.279 1.625-5.758 3.976-11.52 7.947-17.272 11.93-1.225.847-2.42 1.738-3.63 2.609z"/></g></g></g></svg>